<svg width="1440" height="960" viewBox="0 0 1440 960" fill="none" xmlns="http://www.w3.org/2000/svg">
  <defs>
    <radialGradient id="bgGradient" cx="50%" cy="40%" r="85%" fx="45%" fy="35%">
      <stop offset="0%" stop-color="#1E3A8A" stop-opacity="0.9"/>
      <stop offset="40%" stop-color="#0F172A" stop-opacity="0.95"/>
      <stop offset="100%" stop-color="#020617"/>
    </radialGradient>
    <linearGradient id="ringGradient" x1="0%" y1="0%" x2="100%" y2="100%">
      <stop offset="0%" stop-color="#38BDF8"/>
      <stop offset="100%" stop-color="#C084FC"/>
    </linearGradient>
    <linearGradient id="shieldGradient" x1="30%" y1="0%" x2="70%" y2="100%">
      <stop offset="0%" stop-color="#38BDF8" stop-opacity="0.95"/>
      <stop offset="100%" stop-color="#4ADE80" stop-opacity="0.85"/>
    </linearGradient>
    <linearGradient id="meshGradient" x1="0" y1="0" x2="0" y2="960">
      <stop offset="0%" stop-color="#38BDF8" stop-opacity="0.15"/>
      <stop offset="100%" stop-color="#6366F1" stop-opacity="0.05"/>
    </linearGradient>
    <filter id="glow" x="-30%" y="-30%" width="160%" height="160%" color-interpolation-filters="sRGB">
      <feGaussianBlur stdDeviation="18" result="blur"/>
      <feMerge>
        <feMergeNode in="blur"/>
        <feMergeNode in="SourceGraphic"/>
      </feMerge>
    </filter>
  </defs>

  <rect width="1440" height="960" fill="url(#bgGradient)"/>

  <g opacity="0.35">
    <path d="M0 220L1440 120" stroke="url(#meshGradient)" stroke-width="1"/>
    <path d="M0 420L1440 320" stroke="url(#meshGradient)" stroke-width="1"/>
    <path d="M0 620L1440 520" stroke="url(#meshGradient)" stroke-width="1"/>
    <path d="M0 820L1440 720" stroke="url(#meshGradient)" stroke-width="1"/>
    <path d="M240 0L1400 960" stroke="url(#meshGradient)" stroke-width="1"/>
    <path d="M520 0L1440 800" stroke="url(#meshGradient)" stroke-width="1"/>
    <path d="M820 0L1440 600" stroke="url(#meshGradient)" stroke-width="1"/>
  </g>

  <g opacity="0.4" filter="url(#glow)">
    <circle cx="1040" cy="280" r="220" fill="#1E293B" fill-opacity="0.5"/>
    <circle cx="380" cy="700" r="180" fill="#1E293B" fill-opacity="0.35"/>
  </g>

  <g transform="translate(880 200)">
    <circle cx="200" cy="200" r="190" stroke="url(#ringGradient)" stroke-width="1.5" stroke-opacity="0.45"/>
    <circle cx="200" cy="200" r="150" stroke="url(#ringGradient)" stroke-width="1.5" stroke-opacity="0.35" stroke-dasharray="6 12"/>
    <circle cx="200" cy="200" r="108" stroke="#38BDF8" stroke-width="1.5" stroke-opacity="0.4" stroke-dasharray="4 10"/>
    <circle cx="200" cy="200" r="72" stroke="#38BDF8" stroke-width="2" stroke-opacity="0.55"/>

    <path d="M200 86C240 118 266 160 266 210C266 260 240 302 200 334C160 302 134 260 134 210C134 160 160 118 200 86Z" fill="url(#shieldGradient)" fill-opacity="0.9"/>
    <path d="M200 120C228 148 244 178 244 214C244 250 228 280 200 308C172 280 156 250 156 214C156 178 172 148 200 120Z" stroke="#E0F2FE" stroke-opacity="0.75" stroke-width="2"/>
    <path d="M200 148C214 162 222 180 222 202C222 224 214 242 200 256C186 242 178 224 178 202C178 180 186 162 200 148Z" fill="#0F172A" fill-opacity="0.75"/>
    <circle cx="200" cy="202" r="18" fill="#38BDF8"/>
    <circle cx="200" cy="202" r="36" stroke="#38BDF8" stroke-width="2" stroke-opacity="0.6"/>
    <circle cx="200" cy="202" r="56" stroke="#22D3EE" stroke-width="1.5" stroke-opacity="0.5" stroke-dasharray="3 8"/>

    <g transform="translate(80 10)" stroke="#38BDF8" stroke-width="1" stroke-linecap="round" stroke-opacity="0.5">
      <path d="M0 0L36 20"/>
      <path d="M10 16L42 36"/>
      <path d="M22 32L60 52"/>
    </g>

    <g transform="translate(310 320)" stroke="#22D3EE" stroke-width="1" stroke-linecap="round" stroke-opacity="0.35">
      <path d="M0 0L48 -18"/>
      <path d="M12 18L60 0"/>
      <path d="M24 36L72 18"/>
    </g>
  </g>

  <g transform="translate(180 520)">
    <rect x="0" y="0" width="320" height="190" rx="18" fill="#0F172A" fill-opacity="0.75" stroke="#38BDF8" stroke-opacity="0.4"/>
    <rect x="24" y="36" width="260" height="16" rx="8" fill="#22D3EE" fill-opacity="0.6"/>
    <rect x="24" y="76" width="220" height="16" rx="8" fill="#38BDF8" fill-opacity="0.45"/>
    <rect x="24" y="116" width="190" height="16" rx="8" fill="#4ADE80" fill-opacity="0.45"/>
    <circle cx="280" cy="152" r="22" fill="#22D3EE" fill-opacity="0.8"/>
    <path d="M292 152L276 142V162L292 152Z" fill="#0F172A"/>
  </g>

  <g opacity="0.65" filter="url(#glow)">
    <ellipse cx="420" cy="260" rx="220" ry="160" fill="#0EA5E9" fill-opacity="0.08"/>
    <ellipse cx="420" cy="260" rx="120" ry="86" fill="#6366F1" fill-opacity="0.1"/>
  </g>

  <g transform="translate(360 220)" stroke="#38BDF8" stroke-width="1" stroke-linecap="round" stroke-opacity="0.5">
    <path d="M0 0L32 16"/>
    <path d="M-24 36L0 52"/>
    <path d="M12 56L40 72"/>
  </g>

  <g transform="translate(600 160)" stroke="#C084FC" stroke-width="1" stroke-linecap="round" stroke-opacity="0.5">
    <path d="M0 0L28 20"/>
    <path d="M-16 32L12 52"/>
    <path d="M8 60L36 80"/>
  </g>

  <circle cx="1180" cy="640" r="110" stroke="#38BDF8" stroke-width="1.5" stroke-opacity="0.25" stroke-dasharray="10 12"/>
  <circle cx="220" cy="160" r="90" stroke="#38BDF8" stroke-width="1.2" stroke-opacity="0.25" stroke-dasharray="8 14"/>

  <circle cx="1180" cy="640" r="6" fill="#38BDF8"/>
  <circle cx="220" cy="160" r="6" fill="#38BDF8"/>
</svg>







