<svg width="98" height="32" viewBox="0 0 98 32" fill="none" xmlns="http://www.w3.org/2000/svg" role="img" aria-label="GitHub Logo">
  <rect width="98" height="32" rx="16" fill="#0F172A"/>
  <path d="M24.746 8.186c-3.432 0-6.213 2.781-6.213 6.213 0 2.744 1.776 5.07 4.236 5.895.309.057.422-.121.422-.298 0-.149-.006-.643-.009-1.167-1.725.374-2.09-.73-2.09-.73-.282-.716-.689-.907-.689-.907-.563-.386.043-.378.043-.378.622.043.949.638.949.638.553.948 1.45.674 1.803.516.057-.4.216-.674.395-.83-1.375-.154-2.82-.689-2.82-3.068 0-.678.241-1.233.637-1.667-.064-.156-.276-.783.06-1.632 0 0 .519-.166 1.7.636.492-.137 1.02-.205 1.546-.207.525.002 1.053.07 1.546.207 1.181-.802 1.7-.636 1.7-.636.336.849.124 1.476.06 1.632.397.434.636.989.636 1.667 0 2.387-1.448 2.912-2.829 3.063.223.192.422.571.422 1.152 0 .833-.007 1.503-.007 1.707 0 .179.112.358.427.297 2.456-.828 4.23-3.153 4.23-5.894 0-3.432-2.781-6.213-6.213-6.213Z" fill="#FFFFFF"/>
  <text x="44" y="21" fill="#FFFFFF" font-family="Arial, Helvetica, sans-serif" font-size="14" font-weight="700">GitHub</text>
</svg>







